<svg preserveAspectRatio="none" width="100%" height="100%" overflow="visible" style="display: block;" viewBox="0 0 48 60" fill="none" xmlns="http://www.w3.org/2000/svg">
<path id="Union" d="M2.99497 13.1664C2.99547 1.35532 17.2751 -4.42682 25.6753 3.98255L32.022 10.3362L30.5803 11.7719L24.2335 5.41828C17.1256 -1.69733 5.0429 3.19511 5.04241 13.189L5.04191 23.7363C8.24554 19.8876 14.5035 19.0012 18.6798 23.1645L24.8111 29.2769L24.8114 29.2767L30.9126 35.3682C35.4386 39.8868 43.1179 36.7711 43.1183 30.4161L43.1184 26.0818C41.4183 25.6347 40.1762 24.0593 40.2066 22.2057C40.2424 20.0313 42.0158 18.2977 44.1677 18.3338C46.3196 18.3699 48.0351 20.162 47.9994 22.3364C47.9703 24.1131 46.7808 25.5952 45.1728 26.0583L45.1722 46.8337C45.1716 58.6699 30.8398 64.4401 22.4545 55.9801L16.3003 49.771L17.7477 48.3412L23.902 54.5503C30.9972 61.7087 43.124 56.8262 43.1245 46.8109L43.1248 36.2278C39.9225 40.0878 33.6522 40.9782 29.473 36.8058L23.3734 30.716L23.3733 30.7163L17.2411 24.6032C12.7573 20.1334 5.18845 23.1473 5.04167 29.3748L5.04191 33.8037C6.65914 34.305 7.8227 35.8391 7.79327 37.6338C7.75756 39.8083 5.9841 41.5418 3.83218 41.5057C1.68028 41.4696 -0.0351674 39.6775 0.000547713 37.5031C0.0307729 35.6659 1.30142 34.1436 2.99274 33.7373L2.99175 29.5401C2.99172 29.4672 2.99269 29.3947 2.99422 29.3225L2.99497 13.1664Z" fill="var(--fill-0, white)"/>
</svg>
