<svg preserveAspectRatio="none" width="100%" height="100%" overflow="visible" style="display: block;" viewBox="0 0 103.5 17.9506" fill="none" xmlns="http://www.w3.org/2000/svg">
<g id="Union">
<path d="M46.5256 2.58356H36.4798V6.30458C36.4798 7.14009 36.4479 8.06584 36.3837 9.08131C36.3322 10.0839 36.2228 11.1123 36.0557 12.1662C35.9015 13.2073 35.6637 14.2292 35.3423 15.2318C35.0338 16.2215 34.616 17.1279 34.089 17.9506C33.9861 17.8606 33.8384 17.7576 33.6456 17.642C33.4528 17.5263 33.2602 17.4168 33.0674 17.314C32.8746 17.224 32.7074 17.1534 32.5661 17.102C33.0673 16.3179 33.4594 15.4696 33.7422 14.5571C34.0378 13.6316 34.2562 12.6868 34.3976 11.7228C34.5518 10.7459 34.6483 9.7943 34.6869 8.86881C34.7255 7.9434 34.7448 7.08862 34.7448 6.30458V0.963602H46.5256V2.58356Z" fill="var(--fill-0, white)"/>
<path d="M96.5009 0.366123C96.1924 1.08589 95.8585 1.8123 95.4987 2.54492C95.3649 2.81726 95.2335 3.07411 95.1068 3.31626H103.5V15.6757C103.5 16.2154 103.429 16.633 103.288 16.9286C103.159 17.2371 102.909 17.4684 102.536 17.6226C102.15 17.764 101.649 17.8541 101.032 17.8926C100.428 17.9312 99.689 17.9506 98.8149 17.9506C98.7892 17.7707 98.7439 17.5651 98.6797 17.3338C98.6154 17.1153 98.5383 16.8904 98.4483 16.659C98.3584 16.4405 98.2748 16.2475 98.1977 16.0804C98.6218 16.0933 99.0397 16.1062 99.451 16.1191C99.8624 16.1319 100.223 16.1384 100.531 16.1384C100.839 16.1255 101.058 16.1191 101.186 16.1191C101.379 16.1191 101.508 16.0867 101.572 16.0225C101.649 15.9582 101.688 15.8362 101.688 15.6563V5.10962H89.5409V17.9313H87.7282V3.31626H93.0535C93.1292 3.13772 93.2056 2.95138 93.2812 2.75696C93.474 2.28142 93.6477 1.80572 93.8019 1.33018C93.969 0.854672 94.1038 0.411263 94.2066 0L96.5009 0.366123Z" fill="var(--fill-0, white)"/>
<path d="M60.4466 17.9313H58.6532V4.51168H60.4466V17.9313Z" fill="var(--fill-0, white)"/>
<path d="M74.6563 15.5791C74.6563 16.1189 74.5857 16.5304 74.4443 16.8131C74.3158 17.1087 74.0844 17.3337 73.7502 17.4879C73.4032 17.6292 72.9534 17.7193 72.4007 17.7579C71.8609 17.7964 71.1923 17.8154 70.3953 17.8154C70.3568 17.5455 70.2796 17.2305 70.164 16.8706C70.0483 16.5236 69.9324 16.228 69.8167 15.9838C70.1766 16.0095 70.5303 16.0289 70.8774 16.0418H71.8221C72.0921 16.0289 72.2786 16.0225 72.3814 16.0225C72.5613 16.0225 72.6833 15.9901 72.7475 15.9259C72.8118 15.8488 72.8441 15.7268 72.8441 15.5598V2.75696H63.7821V1.06019H74.6563V15.5791Z" fill="var(--fill-0, white)"/>
<path d="M33.4915 11.3949C33.2344 12.0761 32.9514 12.7831 32.6429 13.5157C32.3472 14.2484 32.0388 14.9747 31.7174 15.6945C31.409 16.4015 31.1005 17.0636 30.792 17.6806L29.1146 16.6586C29.3974 16.1573 29.7058 15.5593 30.04 14.8652C30.3742 14.1712 30.7085 13.4322 31.0427 12.6482C31.3897 11.8642 31.7046 11.0991 31.9874 10.3535L33.4915 11.3949Z" fill="var(--fill-0, white)"/>
<path d="M9.7947 3.68284H16.5624V5.45688H9.7947V9.33199H15.8491V11.0867H9.7947V15.5598H17.5072V17.3338H0.19272V15.5598H7.90521V11.0867H2.3522V9.33199H7.90521V5.45688H3.5651C3.41577 5.75346 3.26258 6.04283 3.10422 6.32435C2.64149 7.13413 2.15942 7.84754 1.65813 8.46452C1.52959 8.36168 1.36245 8.24579 1.15678 8.11725C0.96399 7.97587 0.764486 7.84102 0.558843 7.71249C0.353319 7.5712 0.167011 7.46211 0 7.38501C0.527012 6.81943 1.00906 6.16377 1.44609 5.41825C1.88313 4.65986 2.27513 3.84353 2.62219 2.96946C2.9821 2.09539 3.27761 1.2084 3.50898 0.308628L5.39847 0.732705C5.11568 1.72247 4.77493 2.69947 4.37645 3.66353C4.37384 3.66997 4.37125 3.67641 4.36863 3.68284H7.90521V0.0386361H9.7947V3.68284Z" fill="var(--fill-0, white)"/>
<path d="M42.3801 11.8962H46.1204V13.4003H42.3801V15.7911H46.6797V17.3333H35.863V15.7911H40.7026V13.4003H37.0584V11.8962H40.7026V10.1415H42.3801V11.8962Z" fill="var(--fill-0, white)"/>
<path fill-rule="evenodd" clip-rule="evenodd" d="M99.3549 13.8437H93.4546V15.2318H91.7965V7.36523H99.3549V13.8437ZM93.4546 12.2435H97.6775V8.98472H93.4546V12.2435Z" fill="var(--fill-0, white)"/>
<path fill-rule="evenodd" clip-rule="evenodd" d="M70.0867 13.1303H64.7655V14.3257H63.1069V5.93845H70.0867V13.1303ZM64.7655 11.4915H68.3131V7.57727H64.7655V11.4915Z" fill="var(--fill-0, white)"/>
<path d="M42.3801 4.66576H45.735V6.13117H42.3801V8.2327H46.4097V9.73675H36.7691V8.2327H40.7026V6.13117H37.5404V4.66576H40.7026V2.98831H42.3801V4.66576Z" fill="var(--fill-0, white)"/>
<path d="M29.7511 5.34051C30.1367 5.48188 30.5413 5.66205 30.9654 5.8805C31.3895 6.08613 31.7881 6.3046 32.1608 6.53593C32.5465 6.76731 32.8553 6.9857 33.0867 7.19137L32.0454 8.71473C31.814 8.49623 31.512 8.26486 31.1393 8.02066C30.7665 7.77646 30.368 7.53863 29.9439 7.30727C29.5325 7.0759 29.1276 6.87644 28.7291 6.70933L29.7511 5.34051Z" fill="var(--fill-0, white)"/>
<path d="M61.1788 1.29155C61.5644 1.67717 61.9246 2.0567 62.2588 2.42947C62.6058 2.80217 62.8824 3.12318 63.0881 3.39307L61.6995 4.41509C61.4938 4.11948 61.2241 3.7851 60.89 3.41239C60.5686 3.02678 60.2214 2.63475 59.8486 2.23629C59.4887 1.825 59.1479 1.44586 58.8266 1.09883L60.1573 0.231356C60.4657 0.552623 60.8062 0.90605 61.1788 1.29155Z" fill="var(--fill-0, white)"/>
<path d="M30.7534 0.154084C31.1389 0.308314 31.544 0.500911 31.9681 0.732245C32.3922 0.963583 32.7908 1.20144 33.1635 1.44563C33.549 1.67694 33.8576 1.9084 34.089 2.1397L33.0094 3.62443C32.7909 3.40594 32.4954 3.16809 32.1227 2.91104C31.7628 2.65398 31.3707 2.40323 30.9466 2.15902C30.5353 1.90197 30.1303 1.68353 29.7318 1.50359L30.7534 0.154084Z" fill="var(--fill-0, white)"/>
</g>
</svg>
