<svg preserveAspectRatio="none" width="100%" height="100%" overflow="visible" style="display: block;" viewBox="0 0 24 24" fill="none" xmlns="http://www.w3.org/2000/svg">
<g id="Frame">
<path id="Vector" d="M1.57969 5.05078C1.60547 5.11406 1.63828 5.175 1.67578 5.23125C1.71328 5.2875 1.75781 5.34141 1.80703 5.39063C1.85625 5.43984 1.90781 5.48203 1.96641 5.52188C2.02266 5.55938 2.08359 5.59219 2.14688 5.61797C2.21016 5.64375 2.27578 5.66484 2.34375 5.67656C2.41172 5.68828 2.47969 5.69766 2.54766 5.69766H21.4477C21.5156 5.69766 21.5859 5.69063 21.6516 5.67656C21.7195 5.6625 21.7852 5.64375 21.8484 5.61797C21.9117 5.59219 21.9727 5.55938 22.0289 5.52188C22.0852 5.48438 22.1391 5.43984 22.1883 5.39063C22.2375 5.34141 22.2797 5.28984 22.3195 5.23125C22.357 5.175 22.3898 5.11406 22.4156 5.05078C22.4414 4.9875 22.4625 4.92188 22.4742 4.85391C22.4883 4.78594 22.4953 4.71797 22.4953 4.65C22.4953 4.58203 22.4883 4.51172 22.4742 4.44609C22.4602 4.37813 22.4414 4.3125 22.4156 4.24922C22.3898 4.18594 22.357 4.125 22.3195 4.06875C22.282 4.0125 22.2375 3.95859 22.1883 3.90938C22.1391 3.86016 22.0875 3.81797 22.0289 3.77813C21.9727 3.74063 21.9117 3.70781 21.8484 3.68203C21.7852 3.65625 21.7195 3.63516 21.6516 3.62344C21.5836 3.60938 21.5156 3.60234 21.4477 3.60234H2.55C2.48203 3.60234 2.41172 3.60938 2.34609 3.62344C2.28047 3.6375 2.2125 3.65625 2.14922 3.68203C2.08594 3.70781 2.025 3.74063 1.96875 3.77813C1.9125 3.81563 1.85859 3.86016 1.80937 3.90938C1.76016 3.95859 1.71797 4.01016 1.67813 4.06875C1.64063 4.125 1.60781 4.18594 1.58203 4.24922C1.55625 4.3125 1.53516 4.37813 1.52344 4.44609C1.50938 4.51406 1.50234 4.58203 1.50234 4.65C1.50234 4.71797 1.50938 4.78828 1.52344 4.85391C1.5375 4.91953 1.55391 4.9875 1.57969 5.05078ZM22.4203 11.5992C22.3945 11.5359 22.3617 11.475 22.3242 11.4188C22.2867 11.3625 22.2422 11.3086 22.193 11.2594C22.1438 11.2102 22.0922 11.168 22.0336 11.1281C21.975 11.0883 21.9164 11.0578 21.8531 11.032C21.7898 11.0063 21.7242 10.9852 21.6563 10.9734C21.5883 10.9594 21.5203 10.9523 21.4523 10.9523H2.55C2.48203 10.9523 2.41172 10.9594 2.34609 10.9734C2.28047 10.9875 2.2125 11.0063 2.14922 11.032C2.08594 11.0578 2.025 11.0906 1.96875 11.1281C1.9125 11.1656 1.85859 11.2102 1.80937 11.2594C1.76016 11.3086 1.71797 11.3602 1.67813 11.4188C1.64063 11.475 1.60781 11.5359 1.58203 11.5992C1.55625 11.6625 1.53516 11.7281 1.52344 11.7961C1.50938 11.8641 1.50234 11.932 1.50234 12C1.50234 12.068 1.50938 12.1383 1.52344 12.2039C1.5375 12.2695 1.55625 12.3375 1.58203 12.4008C1.60781 12.4641 1.64063 12.525 1.67813 12.5813C1.71563 12.6375 1.76016 12.6914 1.80937 12.7406C1.85859 12.7898 1.91016 12.832 1.96875 12.8719C2.025 12.9094 2.08594 12.9422 2.14922 12.968C2.2125 12.9938 2.27813 13.0148 2.34609 13.0266C2.41406 13.0383 2.48203 13.0477 2.55 13.0477H21.45C21.518 13.0477 21.5883 13.0406 21.6539 13.0266C21.7219 13.0125 21.7875 12.9938 21.8508 12.968C21.9141 12.9422 21.975 12.9094 22.0313 12.8719C22.0875 12.8344 22.1414 12.7898 22.1906 12.7406C22.2398 12.6914 22.282 12.6398 22.3219 12.5813C22.3594 12.525 22.3922 12.4641 22.418 12.4008C22.4438 12.3375 22.4648 12.2719 22.4766 12.2039C22.4906 12.1359 22.4977 12.068 22.4977 12C22.4977 11.932 22.4906 11.8617 22.4766 11.7961C22.4672 11.7281 22.4461 11.6625 22.4203 11.5992ZM22.4203 18.9492C22.3945 18.8859 22.3617 18.825 22.3242 18.7688C22.2867 18.7125 22.2422 18.6586 22.193 18.6094C22.1438 18.5602 22.0922 18.518 22.0336 18.4781C21.975 18.4383 21.9164 18.4078 21.8531 18.382C21.7898 18.3563 21.7242 18.3352 21.6563 18.3234C21.5883 18.3094 21.5203 18.3023 21.4523 18.3023H2.55C2.48203 18.3023 2.41172 18.3094 2.34609 18.3234C2.28047 18.3375 2.2125 18.3563 2.14922 18.382C2.08594 18.4078 2.025 18.4406 1.96875 18.4781C1.9125 18.5156 1.85859 18.5602 1.80937 18.6094C1.76016 18.6586 1.71797 18.7102 1.67813 18.7688C1.64063 18.825 1.60781 18.8859 1.58203 18.9492C1.55625 19.0125 1.53516 19.0781 1.52344 19.1461C1.50938 19.2141 1.50234 19.282 1.50234 19.35C1.50234 19.418 1.50938 19.4883 1.52344 19.5539C1.5375 19.6195 1.55625 19.6875 1.58203 19.7508C1.60781 19.8141 1.64063 19.875 1.67813 19.9313C1.71563 19.9875 1.76016 20.0414 1.80937 20.0906C1.85859 20.1398 1.91016 20.182 1.96875 20.2219C2.025 20.2594 2.08594 20.2922 2.14922 20.318C2.2125 20.3438 2.27813 20.3648 2.34609 20.3766C2.41406 20.3883 2.48203 20.3977 2.55 20.3977H21.45C21.518 20.3977 21.5883 20.3906 21.6539 20.3766C21.7219 20.3625 21.7875 20.3438 21.8508 20.318C21.9141 20.2922 21.975 20.2594 22.0313 20.2219C22.0875 20.1844 22.1414 20.1398 22.1906 20.0906C22.2398 20.0414 22.282 19.9898 22.3219 19.9313C22.3594 19.875 22.3922 19.8141 22.418 19.7508C22.4438 19.6875 22.4648 19.6219 22.4766 19.5539C22.4906 19.4859 22.4977 19.418 22.4977 19.35C22.4977 19.282 22.4906 19.2117 22.4766 19.1461C22.4672 19.0781 22.4461 19.0125 22.4203 18.9492Z" fill="var(--fill-0, white)"/>
</g>
</svg>
